# xmcd
# 
# Track frame offsets:
#     150
#     24449
#     51334
#     74501
#     98752
#     125677
# 
# Disc length: 1983
# 
# Revision: 0
# Processed by: cddbd v1.5.2PL0 Copyright (c) Steve Scherf et al.
# Submitted via: fre:ac v1.0.17
# 
DISCID=5107bd06
DTITLE=いとうかなこ - 聖数3の二乗
DYEAR=2016
DGENRE=Jpop
TTITLE0=聖数3の二乗
TTITLE1=侍霊演武
TTITLE2=G.O.S
TTITLE3=聖数3の二乗(Off Vocal) 
TTITLE4=侍霊演武(Off Vocal) 
TTITLE5=G.O.S(Off Vocal) 
EXTD=
EXTT0=
EXTT1=
EXTT2=
EXTT3=
EXTT4=
EXTT5=
PLAYORDER=
